<?xml version="1.0" standalone="no"?>
<!DOCTYPE svg PUBLIC "-//W3C//DTD SVG 20010904//EN"
 "http://www.w3.org/TR/2001/REC-SVG-20010904/DTD/svg10.dtd">
<svg version="1.0" xmlns="http://www.w3.org/2000/svg"
 width="16.000000pt" height="16.000000pt" viewBox="0 0 16.000000 16.000000"
 preserveAspectRatio="xMidYMid meet">
<metadata>
Created by potrace 1.11, written by Peter Selinger 2001-2013
</metadata>
<g transform="translate(0.000000,16.000000) scale(0.006154,-0.006154)"
fill="#000000" stroke="none">
<path d="M1346 2498 c-68 -107 -311 -498 -320 -515 -6 -13 -14 -23 -18 -23 -5
0 -8 -4 -8 -9 0 -12 -63 -115 -72 -119 -5 -2 -8 -10 -8 -18 0 -8 -5 -14 -11
-14 -5 0 -8 -4 -5 -9 4 -5 3 -11 -2 -13 -4 -1 -19 -21 -32 -43 -21 -36 -38
-63 -115 -185 -12 -19 -55 -89 -96 -155 -40 -66 -76 -122 -80 -125 -3 -3 -8
-10 -10 -15 -4 -11 -102 -170 -202 -328 -32 -51 -61 -100 -64 -109 -3 -10 -8
-18 -12 -18 -3 0 -22 -27 -41 -60 l-35 -60 -83 6 -84 6 5 -127 c2 -69 6 -128
9 -130 6 -7 63 -13 163 -20 50 -3 113 -8 140 -10 53 -5 121 -11 250 -20 44 -3
102 -8 128 -11 l48 -5 -4 126 c-3 69 -6 128 -8 129 -2 2 -38 6 -79 10 -97 8
-142 14 -147 20 -3 3 4 17 14 33 11 15 57 92 103 171 l82 142 47 -5 c101 -12
128 -15 186 -20 33 -3 71 -8 85 -10 14 -3 52 -7 85 -10 68 -6 148 -15 185 -20
14 -2 51 -6 83 -10 31 -3 57 -9 58 -13 0 -4 2 -85 4 -179 l3 -173 -62 6 c-33
3 -67 7 -75 10 -25 8 -40 -14 -31 -46 5 -17 5 -32 0 -35 -4 -3 -6 -13 -4 -23
9 -42 11 -92 4 -92 -4 0 -5 -11 -2 -25 3 -17 11 -25 26 -26 11 0 28 -2 37 -4
8 -1 58 -6 110 -9 100 -8 136 -10 264 -21 44 -4 103 -8 130 -10 28 -2 80 -6
118 -9 37 -4 100 -9 140 -12 39 -3 92 -7 117 -9 152 -12 240 -18 275 -19 l40
-1 -3 280 c-2 154 -4 281 -6 282 -3 3 -117 16 -216 25 -23 2 -25 -13 -22 -172
l4 -171 -24 5 c-12 3 -58 8 -100 11 -42 3 -94 7 -115 10 -46 5 -130 13 -238
21 -44 4 -87 10 -96 15 -13 7 -16 40 -18 241 -2 128 -4 287 -5 353 -2 66 -2
123 0 126 2 3 29 2 61 -3 32 -4 74 -10 93 -12 19 -2 58 -7 85 -11 28 -4 92
-12 143 -19 51 -7 94 -10 96 -7 1 3 2 55 1 116 -1 107 -2 110 -26 117 -13 5
-121 22 -239 39 -118 17 -216 31 -217 32 -1 1 -4 155 -7 343 l-5 341 102 -18
c123 -21 291 -53 407 -77 l85 -17 1 -165 c1 -91 2 -170 3 -176 1 -6 22 -15 49
-18 26 -4 56 -9 67 -12 11 -2 34 -5 50 -7 17 -3 35 -6 40 -7 41 -10 41 -14 38
286 -1 158 -4 288 -6 291 -2 2 -262 55 -578 118 -316 63 -584 117 -596 120
-16 4 -27 -1 -37 -17z m121 -575 c1 -137 5 -360 7 -496 2 -138 -1 -250 -6
-253 -7 -5 -121 6 -218 21 -14 2 -86 11 -160 20 -74 9 -144 18 -155 20 -11 2
-23 4 -27 4 -10 1 3 41 14 41 5 0 7 4 4 9 -4 5 -3 11 1 13 10 4 42 57 50 81 3
9 9 17 14 17 5 0 9 4 9 9 0 11 132 238 149 258 6 7 11 19 11 27 0 8 4 16 8 18
4 2 30 41 57 88 28 46 55 92 60 101 6 9 21 36 34 60 13 24 27 46 31 49 3 3 13
20 21 38 8 17 17 32 20 32 4 0 10 8 13 18 6 15 16 34 40 70 4 7 11 11 14 8 3
-3 7 -117 9 -253z"/>
<path d="M62 236 c2 -31 6 -36 28 -37 14 -1 41 -3 60 -4 19 -1 89 -6 154 -10
65 -3 126 -8 135 -10 9 -1 75 -6 146 -10 72 -3 144 -8 160 -10 17 -2 77 -7
135 -10 58 -3 132 -8 165 -10 57 -5 94 -7 300 -20 50 -2 119 -7 155 -10 70 -5
154 -11 290 -20 47 -3 114 -7 150 -10 36 -3 101 -7 145 -10 44 -3 114 -7 155
-10 41 -3 111 -7 155 -10 44 -3 108 -8 143 -10 l63 -5 -3 32 c-3 36 5 34 -155
43 -65 4 -134 8 -153 10 -19 2 -80 6 -135 10 -55 3 -118 8 -140 10 -22 1 -92
6 -155 10 -63 3 -126 8 -140 10 -14 2 -70 6 -125 10 -55 3 -125 8 -155 10 -30
3 -91 7 -135 10 -85 5 -198 14 -280 20 -27 2 -90 7 -140 10 -49 3 -115 8 -145
10 -30 3 -93 7 -140 10 -86 5 -193 12 -285 20 -27 2 -96 7 -153 11 l-103 6 3
-36z"/>
</g>
</svg>
