<?xml version="1.0" standalone="no"?>
<!DOCTYPE svg PUBLIC "-//W3C//DTD SVG 20010904//EN"
 "http://www.w3.org/TR/2001/REC-SVG-20010904/DTD/svg10.dtd">
<svg version="1.0" xmlns="http://www.w3.org/2000/svg"
 width="16.000000pt" height="16.000000pt" viewBox="0 0 16.000000 16.000000"
 preserveAspectRatio="xMidYMid meet">
<metadata>
Created by potrace 1.11, written by Peter Selinger 2001-2013
</metadata>
<g transform="translate(0.000000,16.000000) scale(0.005654,-0.005654)"
fill="#000000" stroke="none">
<path d="M2427 2694 c-1 -1 -157 -5 -347 -9 -190 -4 -390 -9 -445 -11 -55 -1
-125 -3 -156 -3 l-56 -1 -120 -212 c-163 -288 -326 -576 -673 -1193 -161 -286
-300 -528 -308 -537 -8 -10 -29 -18 -46 -18 -17 0 -48 -3 -69 -6 l-37 -7 0
-122 c0 -122 0 -123 25 -127 13 -3 22 -1 19 3 -7 11 49 6 62 -6 7 -5 9 -14 6
-19 -3 -5 1 -5 9 0 14 9 27 12 67 18 13 1 27 7 30 12 8 11 22 12 39 1 7 -4 13
-1 16 8 4 12 5 12 3 -1 0 -10 -9 -18 -19 -20 -9 -1 -14 2 -11 8 4 6 -3 5 -15
-2 -23 -12 -19 -35 5 -26 7 3 16 1 19 -5 4 -5 11 -7 16 -3 5 3 6 10 3 16 -5 7
-1 9 9 5 9 -3 19 -2 22 4 4 5 11 6 17 3 6 -4 1 -12 -13 -20 -13 -7 -18 -13
-11 -14 7 0 10 -5 6 -12 -4 -7 -3 -8 5 -4 6 4 8 12 5 18 -5 8 -1 9 10 5 9 -4
14 -3 11 2 -10 16 15 23 33 10 12 -10 11 -7 -3 10 l-20 23 27 -13 c15 -6 25
-17 21 -23 -4 -6 4 -2 16 8 24 22 51 29 51 15 0 -6 5 -7 10 -4 14 9 12 -8 -2
-25 -11 -12 -10 -12 4 -1 12 9 16 22 13 39 -5 29 13 46 32 31 7 -6 18 -7 25
-3 20 13 61 13 77 0 12 -9 13 -7 8 9 -7 20 -7 20 8 1 8 -11 13 -29 10 -40 -4
-18 -4 -18 6 1 13 25 29 30 29 11 0 -7 5 -5 11 5 8 13 7 23 -2 35 -8 9 -2 6
13 -6 26 -24 26 -24 37 -3 9 16 8 22 -5 29 -21 12 -10 32 17 32 10 0 19 4 19
8 0 10 -36 9 -46 -1 -4 -4 -11 -7 -16 -7 -4 0 1 9 12 20 23 23 34 26 25 8 -4
-7 0 -4 9 6 8 10 13 22 11 27 -3 4 -2 9 2 12 5 2 3 2 -4 1 -7 -2 -15 1 -18 6
-4 6 -1 10 4 10 6 0 11 5 11 11 0 5 -4 7 -10 4 -5 -3 -10 1 -10 10 0 10 5 13
13 9 6 -4 9 -4 5 1 -4 4 -2 15 4 24 9 11 6 10 -9 -2 -20 -18 -21 -18 -37 5 -9
12 -16 17 -16 11 0 -7 5 -15 10 -18 6 -4 7 -11 4 -17 -5 -7 -2 -8 6 -3 8 5 11
4 6 -3 -3 -6 -2 -13 2 -16 10 -6 4 -54 -7 -60 -3 -2 -5 10 -5 27 2 41 -7 56
-18 31 -6 -14 -7 -11 -3 9 3 16 2 26 -3 23 -4 -2 -8 5 -9 17 -1 49 -3 55 -20
51 -49 -11 -102 -10 -119 3 -10 7 -12 13 -5 13 7 0 9 5 5 13 -5 8 -2 8 9 -2
19 -15 23 -1 5 17 -8 8 -8 12 -1 12 14 0 25 -29 16 -42 -3 -7 -1 -8 5 -4 7 4
12 2 12 -5 0 -7 3 -10 6 -7 3 4 0 16 -6 28 -11 20 -10 21 9 15 15 -4 21 -3 19
7 -2 7 3 12 10 10 8 -1 11 2 7 9 -5 8 -10 8 -18 0 -18 -18 -33 -13 -46 16
l-12 28 19 -23 c16 -21 20 -22 31 -8 7 8 20 12 29 9 14 -5 13 -3 -2 9 -18 15
-18 15 1 29 15 10 18 19 12 34 -5 14 -8 16 -9 5 -2 -8 -2 -19 -1 -23 1 -5 -4
-5 -10 -1 -8 5 -9 3 -4 -6 5 -9 4 -11 -4 -6 -9 6 -9 13 2 29 15 24 12 51 -5
41 -7 -5 -8 -2 -3 6 6 10 11 9 22 -6 8 -10 18 -18 23 -17 5 2 7 -4 4 -12 -4
-8 -2 -15 4 -15 6 0 9 8 7 18 -2 9 -4 21 -4 25 -1 5 -6 5 -13 1 -7 -4 -8 -3
-4 4 4 7 2 12 -6 12 -7 0 -2 7 10 16 19 13 21 18 10 32 -7 10 -9 14 -4 10 10
-9 46 23 47 42 0 10 3 9 8 -5 9 -22 4 -38 -9 -30 -4 3 -13 -1 -19 -9 -9 -10
-8 -15 3 -19 16 -6 46 32 46 57 0 8 5 18 12 22 8 5 9 2 5 -10 -4 -9 -3 -14 2
-11 5 3 12 -3 14 -12 4 -17 5 -17 6 0 1 20 21 23 21 3 0 -8 5 -18 12 -22 7 -4
8 -3 4 5 -15 23 4 51 35 51 16 0 28 3 27 7 -2 5 2 8 7 8 6 0 9 -3 7 -7 -1 -5
5 -8 14 -8 8 0 12 -5 9 -11 -4 -6 2 -5 13 2 16 10 23 10 35 0 11 -8 17 -9 22
-1 5 8 11 8 21 -1 13 -11 18 -6 15 15 -1 5 5 6 14 2 9 -3 19 -6 21 -6 3 0 3
-4 0 -8 -2 -4 4 -8 14 -8 10 0 16 6 13 13 -3 7 -10 11 -16 10 -7 -1 -11 4 -9
12 2 9 -3 11 -15 7 -14 -6 -15 -5 -6 5 10 10 17 9 32 -5 12 -11 21 -14 26 -7
3 6 0 11 -7 11 -10 0 -9 3 1 9 10 6 23 5 35 -2 30 -16 44 -17 50 -2 5 13 37
15 36 2 0 -4 0 -10 0 -13 0 -4 -7 -1 -15 6 -10 9 -15 9 -15 1 0 -11 13 -15 39
-12 7 2 10 -2 7 -7 -3 -6 2 -9 11 -7 10 1 24 -2 31 -8 10 -8 12 -7 10 3 -2 7
3 15 11 18 9 3 11 0 6 -8 -5 -9 -4 -11 4 -6 9 6 9 11 0 22 -10 12 -14 12 -25
-3 -8 -11 -13 -13 -14 -5 0 6 -5 12 -11 12 -5 0 -7 -5 -3 -12 4 -6 3 -8 -4 -5
-12 8 -10 32 3 44 4 4 5 2 1 -5 -8 -13 19 -13 42 2 8 4 11 3 10 -5 -2 -6 3
-14 11 -17 8 -2 11 0 7 6 -3 6 -1 14 5 18 8 5 9 3 4 -6 -6 -10 -4 -12 8 -7 12
4 15 1 12 -14 -2 -11 0 -31 5 -44 6 -15 6 -27 -1 -30 -5 -4 -6 -11 -2 -18 9
-15 11 -178 1 -198 -5 -12 -28 -19 -83 -24 -84 -8 -77 3 -77 -110 0 -30 1 -73
1 -95 l1 -40 56 4 c43 3 54 1 50 -10 -3 -8 0 -11 9 -7 8 3 12 10 8 17 -4 6 1
5 10 -3 14 -11 17 -11 17 0 0 12 2 12 9 0 5 -8 16 -11 25 -8 9 4 19 6 22 6 4
0 11 5 15 13 7 10 9 10 9 0 0 -7 5 -10 10 -7 6 3 10 1 10 -5 0 -7 -7 -10 -17
-6 -17 6 -17 5 0 -8 11 -9 14 -16 7 -19 -6 -3 -5 -4 2 -2 7 1 12 8 10 14 -1 7
9 10 26 9 15 -1 33 1 40 6 7 4 15 1 18 -8 5 -12 9 -13 19 -3 7 7 11 15 8 19
-2 4 3 5 11 2 12 -5 13 -11 6 -24 -7 -13 -7 -21 0 -25 6 -4 10 -3 9 2 -1 4 -1
14 0 22 1 11 4 11 18 0 15 -12 16 -12 8 1 -6 8 -10 18 -10 22 0 3 -4 10 -9 15
-5 5 -6 2 -1 -6 6 -10 4 -12 -4 -6 -10 5 -10 10 -1 19 8 8 13 7 19 -2 10 -16
22 -14 36 5 9 12 11 11 11 -5 0 -14 -6 -19 -18 -17 -10 2 -18 0 -18 -6 0 -13
45 -4 46 9 1 7 2 17 3 22 2 16 18 12 18 -5 0 -8 -3 -12 -6 -11 -3 2 -7 -8 -8
-22 l-1 -27 13 25 c7 14 16 24 19 23 3 -2 7 -3 9 -2 21 7 50 3 54 -8 3 -7 10
-13 15 -13 7 0 6 5 -1 13 -6 8 -7 18 -3 22 4 5 1 5 -5 1 -9 -5 -11 -2 -6 9 3
10 8 13 12 6 4 -6 12 -7 21 -1 22 14 31 12 28 -6 -2 -10 4 -19 12 -21 13 -4
13 -3 0 7 -12 9 -8 10 20 8 19 -1 41 -6 48 -11 6 -5 12 -8 13 -6 6 30 5 36 -7
36 -7 0 -11 -3 -9 -7 2 -4 -2 -7 -9 -7 -7 0 -13 6 -13 13 0 7 4 11 9 8 4 -3 8
1 8 8 0 10 2 10 9 0 4 -8 11 -13 15 -13 17 3 26 0 25 -6 -4 -22 3 -32 20 -30
11 0 17 5 15 9 -3 4 4 8 15 8 12 0 21 4 21 8 0 5 7 17 15 28 15 19 15 19 8 -1
-6 -20 -6 -20 15 -2 11 11 25 16 31 13 6 -4 21 -2 33 4 21 10 21 10 -2 -9 -17
-14 -27 -16 -32 -8 -4 6 -10 8 -14 5 -3 -4 1 -14 10 -23 9 -9 13 -21 10 -27
-4 -7 -2 -8 4 -4 6 4 8 14 5 23 -5 12 -3 14 7 8 9 -5 11 -4 6 3 -4 7 -1 12 8
12 8 0 19 7 24 16 8 15 10 15 15 -1 4 -9 2 -26 -3 -38 -10 -20 -9 -20 2 -3 32
47 78 77 65 41 -7 -18 9 -30 19 -14 5 8 3 9 -6 4 -9 -5 -11 -4 -6 4 4 6 11 9
16 6 4 -3 10 2 14 10 3 8 12 12 21 9 8 -4 15 -1 15 7 0 7 2 10 5 7 3 -3 3 -13
-1 -22 -4 -12 -10 -14 -19 -6 -9 7 -15 3 -23 -16 -15 -31 -15 -34 -2 -34 6 0
9 3 9 8 -3 18 2 32 12 32 5 0 8 -4 5 -8 -7 -11 34 -9 52 2 8 5 22 1 35 -11 14
-12 18 -13 9 -2 -6 9 -8 19 -4 23 4 4 7 13 7 19 1 7 6 11 13 9 7 -1 12 4 12
10 0 9 3 8 9 -2 14 -21 2 -33 -17 -18 -15 11 -15 11 -4 -4 10 -13 10 -17 0
-20 -7 -3 -5 -7 7 -12 11 -4 16 -4 13 0 -4 3 0 13 8 21 8 9 13 22 10 30 -3 8
-2 12 2 9 8 -5 44 18 43 28 -1 3 0 8 0 11 6 22 3 51 -6 58 -6 6 -3 7 7 4 25
-9 30 4 8 23 -17 15 -18 19 -5 24 8 3 15 11 15 17 0 8 -5 7 -17 -2 -10 -7 -7
-1 6 14 29 32 28 31 28 12 0 -8 -5 -11 -11 -8 -6 3 -3 -2 6 -13 14 -15 20 -16
30 -5 11 10 10 11 -4 6 -14 -6 -16 -2 -12 20 4 23 2 26 -13 20 -10 -4 -27 -9
-38 -11 l-20 -5 20 10 c22 10 60 51 47 51 -4 0 -8 9 -9 21 -1 12 3 19 10 16 7
-2 12 -9 12 -14 0 -6 3 -14 7 -18 3 -4 5 1 4 11 -2 10 -13 25 -26 33 -15 10
-21 11 -16 4 4 -8 2 -13 -4 -13 -7 0 -9 7 -6 16 3 9 6 18 6 21 0 3 7 0 15 -7
17 -14 28 -8 31 15 1 8 -2 13 -7 9 -5 -3 -7 -10 -4 -15 4 -5 2 -9 -4 -9 -15 0
-23 18 -11 25 14 9 12 28 -2 22 -7 -2 -12 -10 -10 -16 1 -7 -2 -9 -8 -6 -6 4
-9 14 -6 22 4 10 2 13 -7 10 -8 -3 -14 0 -14 7 0 6 8 12 18 12 10 0 16 -3 14
-6 -2 -3 5 -6 16 -6 18 0 18 2 5 12 -17 12 -23 29 -7 20 5 -4 8 2 6 11 -1 10
3 25 9 33 9 13 9 13 -5 3 -9 -7 -20 -9 -24 -5 -5 4 -5 2 -2 -4 3 -6 0 -11 -8
-11 -8 0 -12 4 -9 9 5 8 -11 12 -30 9 -5 -1 -4 5 4 13 7 9 18 16 24 16 7 0 6
-4 -2 -9 -11 -7 -11 -9 1 -14 8 -3 23 1 34 9 17 13 17 14 -2 7 -19 -6 -19 -6
-2 14 14 16 15 23 6 29 -7 4 -10 3 -6 -3 4 -6 0 -16 -7 -23 -12 -9 -19 -7 -35
9 -12 12 -21 17 -21 13 0 -4 5 -13 11 -19 7 -7 7 -12 -3 -15 -9 -4 -14 5 -16
29 -3 47 -7 52 -40 48 -15 -2 -65 -6 -112 -10 -47 -4 -88 -9 -92 -12 -5 -2 -8
-78 -8 -169 0 -149 -2 -164 -17 -165 -10 0 -27 -2 -38 -3 -11 -2 -60 -6 -110
-10 -49 -5 -97 -9 -105 -11 -8 -1 -60 -6 -115 -10 -55 -4 -103 -9 -107 -12 -4
-2 -5 4 -1 13 4 11 3 15 -4 11 -15 -9 -44 3 -37 14 3 5 10 9 15 9 6 0 7 -6 3
-12 -6 -10 -4 -10 8 0 14 11 18 10 26 -4 5 -10 12 -12 16 -6 3 5 -1 13 -10 16
-8 3 -12 10 -9 16 3 5 2 10 -4 10 -5 0 -12 -6 -14 -12 -4 -10 -6 -10 -6 0 -1
10 -6 10 -23 2 -21 -10 -21 -10 -6 3 10 8 15 16 13 19 -3 3 5 4 19 3 18 -2 23
1 19 11 -3 8 -9 14 -15 14 -5 0 -6 -6 -2 -12 4 -7 -3 -3 -16 8 -15 15 -20 27
-14 35 5 8 9 27 10 42 l2 28 -27 -23 c-26 -23 -26 -23 2 8 28 32 36 50 15 38
-7 -4 -9 -3 -5 1 4 5 14 10 22 11 16 2 20 -8 8 -19 -14 -14 -11 -56 4 -61 9
-4 18 -4 21 -1 3 3 1 5 -5 5 -12 0 -11 79 2 100 7 12 6 13 -7 3 -8 -7 -19 -9
-23 -5 -5 4 -6 2 -2 -3 3 -6 -3 -11 -14 -11 -18 0 -18 2 -5 12 9 6 13 13 11
16 -3 3 1 11 10 18 9 7 15 8 15 2 0 -6 -6 -13 -12 -15 -7 -3 -8 -6 -3 -6 6 0
17 4 25 9 13 9 13 11 0 20 -8 5 -21 8 -28 5 -7 -3 -10 0 -7 5 3 6 1 10 -5 10
-6 0 -9 4 -6 9 4 5 0 12 -6 15 -7 3 -4 4 6 3 10 -1 21 4 23 11 3 6 -1 10 -9 9
-7 -2 -10 -2 -6 0 4 3 -3 14 -15 26 -13 12 -16 16 -7 9 9 -6 20 -12 23 -12 12
0 3 24 -13 37 -13 11 -13 12 3 7 13 -5 16 -2 11 10 -3 9 -1 16 6 16 6 0 9 -4
6 -9 -3 -5 1 -11 9 -15 20 -7 15 16 -7 32 -10 7 -15 19 -11 29 5 12 3 14 -7 8
-8 -5 -11 -4 -6 3 4 6 13 9 22 5 12 -4 12 -8 2 -22 -11 -14 -11 -14 3 -4 9 7
19 10 23 6 4 -4 4 0 0 10 -3 9 -12 17 -20 17 -8 0 -14 5 -14 10 0 6 7 10 15
10 17 0 20 16 5 25 -6 4 -8 11 -4 16 3 6 12 3 21 -8 13 -17 14 -17 4 2 -6 13
-6 27 0 38 12 20 64 49 73 40 3 -4 6 -1 6 5 0 7 4 12 10 12 5 0 7 -8 4 -17 -4
-12 -3 -14 3 -6 5 6 20 10 35 9 17 -2 25 1 22 9 -6 14 -72 13 -100 -3 -12 -6
-24 -8 -28 -5 -3 3 -6 0 -6 -8 0 -12 -2 -12 -9 0 -6 9 -11 10 -15 2 -4 -6 -2
-11 4 -11 6 0 8 -5 5 -10 -4 -6 -11 -8 -16 -5 -5 3 -6 -2 -3 -12 5 -15 4 -16
-5 -3 -10 13 -11 13 -9 -2 2 -9 -1 -17 -6 -16 -5 0 -12 -6 -17 -14 -6 -9 -8
-6 -6 9 0 12 5 19 9 17 16 -10 8 9 -9 23 -16 13 -16 13 4 3 19 -9 24 -7 35 12
7 13 11 27 10 31 -1 5 2 6 8 2 5 -3 10 0 10 7 0 8 3 9 8 3 9 -13 46 -19 38 -6
-4 5 -1 13 5 17 8 4 9 3 5 -4 -9 -16 7 -15 22 0 9 9 12 9 12 0 0 -7 5 -12 11
-12 5 0 7 6 3 13 -5 8 -2 8 9 -2 11 -9 17 -10 17 -2 0 6 9 2 21 -10 15 -15 24
-18 32 -10 21 21 30 11 11 -11 l-19 -23 22 19 c13 10 20 22 18 26 -3 4 1 13 9
19 17 14 49 3 39 -13 -11 -17 -12 -35 -2 -42 5 -3 9 -2 8 3 -1 4 2 18 6 31 7
20 12 24 31 21 4 0 11 5 15 13 5 7 9 9 9 3 0 -5 -5 -17 -10 -25 -9 -13 -10
-13 -10 0 -1 11 -3 11 -11 -3 -6 -10 -8 -21 -5 -24 3 -4 6 0 6 8 0 8 6 4 16
-9 8 -12 21 -22 27 -22 7 0 4 5 -5 11 -18 10 -25 30 -10 28 19 -3 32 2 32 12
0 8 -6 7 -17 -2 -15 -11 -15 -10 1 8 10 13 22 20 27 18 4 -3 10 -1 14 5 3 5 1
10 -6 10 -7 0 -10 2 -7 5 3 3 13 2 22 -1 10 -4 13 -9 8 -13 -7 -4 -3 -16 9
-31 15 -18 18 -19 11 -5 -10 22 -9 75 1 92 4 7 3 14 -2 17 -5 4 -14 -6 -20
-21 -10 -24 -10 -25 -5 -3 3 14 6 32 7 41 1 9 7 15 14 12 7 -3 10 -9 7 -14 -3
-5 2 -6 11 -2 12 4 13 8 5 13 -8 5 -7 9 4 13 9 4 16 12 15 19 0 10 -2 10 -6 1
-7 -18 -16 -16 -31 8 -12 19 -11 20 10 15 19 -6 19 -4 -5 9 -15 9 -25 20 -22
25 4 6 2 10 -4 10 -5 0 -13 -9 -16 -21 -4 -11 -9 -18 -12 -15 -9 9 -10 50 -1
62 6 8 0 10 -16 9 -21 -3 -107 -7 -354 -20 -51 -2 -52 -2 -40 19 18 29 17 78
-2 83 -9 3 -11 1 -5 -4 14 -11 17 -33 5 -33 -6 0 -10 7 -10 16 0 9 -5 12 -12
8 -10 -6 -10 -4 0 7 21 23 13 33 -10 13 -21 -17 -21 -17 1 8 20 23 22 30 11
43 -7 8 -16 12 -21 9 -5 -3 -8 0 -7 8 2 7 -3 12 -10 10 -8 -1 -11 2 -7 8 5 8
13 6 25 -5 12 -11 20 -13 25 -6 3 6 0 11 -7 11 -8 0 -9 3 -3 8 6 4 11 21 13
37 2 23 1 27 -7 15 -14 -19 -14 -4 -1 20 13 25 -5 37 -27 18 -13 -9 -12 -6 2
13 19 25 21 26 27 8 4 -10 11 -19 14 -19 4 0 4 3 1 7 -4 3 -1 13 6 21 9 13 9
14 0 8 -13 -7 -17 4 -14 33 2 8 -2 10 -11 5 -11 -6 -11 -5 0 8 11 14 10 18 -5
27 -10 6 -13 11 -6 11 6 0 9 10 7 23 -3 15 -2 17 3 6 6 -12 14 -14 28 -8 15 6
16 8 4 8 -21 1 -33 31 -19 45 8 8 14 7 20 -4 5 -8 10 -10 10 -5 0 16 -34 42
-50 37 -13 -3 -13 -2 0 7 11 7 22 6 40 -6 23 -15 24 -15 12 0 -14 17 -7 42 9
32 5 -3 6 1 3 10 -7 17 -30 14 -26 -4 1 -6 -2 -11 -8 -11 -5 0 -10 7 -10 15 0
8 5 15 11 15 5 0 8 4 4 10 -3 5 -13 7 -23 4 -14 -5 -14 -4 -2 4 8 6 19 8 25 4
18 -11 45 -12 45 -1 0 5 6 9 13 8 22 -3 37 1 37 9 0 5 -7 9 -15 9 -8 0 -11 -5
-8 -11 3 -6 2 -7 -2 -3 -5 4 -10 13 -11 21 -3 24 45 11 74 -20 15 -17 21 -22
13 -12 -8 10 -11 18 -7 18 4 0 2 9 -4 20 -9 16 -8 18 5 14 8 -3 12 -10 9 -15
-3 -5 0 -9 6 -9 6 0 8 -5 4 -12 -5 -8 0 -7 11 2 17 13 18 13 13 -1 -3 -9 -1
-16 5 -16 7 0 13 12 14 25 1 18 -1 21 -8 11 -6 -9 -9 -10 -9 -2 0 19 17 24 29
9 9 -11 9 -15 0 -18 -6 -2 1 -12 17 -23 l29 -18 -19 21 c-13 15 -15 22 -6 22
10 0 9 4 -1 17 -13 15 -12 15 7 5 16 -8 24 -8 34 1 10 9 11 9 6 0 -3 -6 -2
-14 3 -17 5 -3 11 1 15 9 3 8 11 15 18 15 9 0 9 -3 -2 -10 -8 -5 -11 -12 -7
-16 4 -4 16 1 26 10 19 17 19 17 17 -1 -2 -10 -8 -18 -14 -18 -6 0 -13 -3 -17
-7 -4 -3 1 -5 12 -3 10 2 21 4 26 4 4 1 7 10 7 21 0 11 4 20 9 20 5 0 8 -8 7
-17 0 -10 5 -17 12 -16 6 2 12 -2 12 -8 0 -5 5 -7 10 -4 18 11 11 24 -11 20
-21 -4 -21 -4 -4 15 21 23 26 25 22 8 -1 -7 5 -11 13 -9 8 2 21 4 28 4 6 0 12
5 12 11 1 15 24 -25 27 -46 2 -11 -2 -15 -11 -12 -8 3 -17 1 -20 -4 -3 -5 2
-9 11 -8 21 1 20 6 22 -147 l1 -124 41 4 c32 3 39 1 33 -9 -6 -10 -4 -10 9 1
17 13 23 6 18 -21 -2 -12 13 -9 35 7 18 14 18 14 -3 8 -13 -3 -23 -1 -23 3 0
5 11 10 25 10 28 2 29 0 16 -25 -8 -15 -6 -17 12 -15 12 1 22 3 22 4 0 1 8 3
18 5 14 3 17 -1 13 -13 -5 -15 -5 -15 6 -1 9 10 25 15 48 13 20 -2 29 1 21 5
-7 5 -13 12 -13 17 1 9 42 28 57 25 6 -1 4 3 -2 10 -15 15 -17 33 -3 24 6 -3
10 -1 10 4 0 15 -15 14 -29 -3 -9 -11 -9 -15 0 -18 7 -2 -2 -10 -20 -18 -18
-7 -30 -18 -28 -24 3 -8 -13 -11 -48 -11 -42 0 -52 2 -47 14 4 11 7 11 10 3 3
-10 7 -10 18 -1 8 6 14 8 14 4 0 -4 7 -2 16 5 8 8 14 9 13 4 -4 -24 2 -26 17
-6 8 12 23 22 32 22 15 0 15 2 2 10 -10 6 -11 10 -2 10 6 0 12 5 12 11 0 5 -4
7 -10 4 -6 -3 -7 1 -4 9 3 9 10 16 16 16 5 0 6 -5 3 -11 -4 -6 2 -5 14 3 12 7
21 16 21 21 0 4 -4 5 -10 2 -13 -8 -13 8 1 22 8 8 8 13 0 17 -16 10 -13 24 7
30 13 4 12 4 -3 3 -12 -2 -19 -10 -19 -20 2 -23 -3 -21 -17 4 -7 13 -7 19 -1
15 12 -7 27 30 23 58 -1 10 2 22 7 25 6 3 3 12 -6 21 -14 13 -15 12 -10 -2 4
-8 1 -21 -5 -27 -6 -6 -7 -11 -3 -11 5 0 2 -8 -5 -17 -12 -15 -12 -16 3 -10
11 4 15 2 12 -7 -3 -7 -11 -13 -19 -13 -8 0 -12 4 -9 9 3 4 -1 8 -8 8 -8 0 -6
5 5 11 14 8 15 14 7 24 -8 9 -8 15 0 20 14 8 13 23 -2 28 -7 2 -5 3 5 2 20 -4
21 -1 6 27 -8 15 -8 19 0 14 6 -4 11 -2 11 5 0 8 5 8 18 -2 14 -11 15 -11 5 1
-19 21 -16 34 5 19 16 -13 16 -13 0 7 -19 22 -25 59 -8 49 6 -3 10 -1 10 4 0
6 -4 11 -8 11 -12 0 -11 34 1 41 5 4 0 10 -12 14 -20 6 -25 20 -22 55 1 11 -1
11 -9 -3 -6 -9 -9 -21 -5 -26 6 -11 -13 -26 -22 -18 -3 3 -7 22 -9 43 -2 20
-6 39 -9 43 -6 5 -162 10 -168 5z m235 -108 c7 4 8 2 4 -5 -4 -6 -13 -9 -19
-5 -7 3 -5 0 3 -8 16 -14 25 -39 13 -37 -20 3 -27 -2 -14 -10 13 -8 13 -12 0
-27 -12 -16 -12 -17 3 -11 11 4 15 2 12 -7 -6 -17 -32 -16 -30 0 1 8 5 16 9
20 3 4 3 12 -1 18 -3 6 -7 25 -8 41 -2 33 7 57 14 37 2 -7 9 -9 14 -6z m-777
-173 c-3 -19 -23 -19 -40 -1 -7 7 -7 9 0 5 6 -3 17 -2 25 4 19 11 19 12 15 -8z
m-70 -3 c3 -6 -1 -7 -9 -4 -18 7 -21 14 -7 14 6 0 13 -4 16 -10z m3 -64 c-2
-1 -12 -8 -23 -16 -18 -14 -19 -13 -8 1 7 9 10 19 6 23 -4 4 1 4 10 0 10 -3
17 -7 15 -8z m12 -50 c0 -2 -7 -7 -16 -10 -8 -3 -12 -2 -9 4 6 10 25 14 25 6z
m797 -21 c0 -8 -4 -12 -9 -9 -5 3 -6 10 -3 15 9 13 12 11 12 -6z m-1114 -7
c-6 -7 -9 -21 -8 -30 2 -10 -1 -18 -6 -18 -5 0 -8 8 -6 18 3 20 16 42 24 42 3
0 1 -6 -4 -12z m1167 -24 c0 0 -9 -9 -19 -18 -14 -13 -21 -14 -27 -5 -4 8 -3
10 4 5 7 -4 12 -3 12 3 0 5 -8 12 -17 14 -10 2 -3 4 14 3 18 0 33 -1 33 -2z
m-1233 -29 c0 -8 -4 -12 -9 -9 -5 3 -6 10 -3 15 9 13 12 11 12 -6z m65 -13
c-10 -3 -10 -7 0 -20 8 -10 9 -13 1 -9 -6 4 -14 3 -18 -3 -3 -5 0 -10 7 -10
10 0 14 -57 16 -278 3 -332 2 -413 -4 -424 -3 -4 -1 -8 5 -8 16 0 -3 -43 -20
-45 -26 -4 -233 -17 -332 -21 -54 -2 -103 -7 -110 -11 -9 -5 -9 -3 0 9 7 8 10
18 6 22 -4 3 -7 15 -8 25 -1 13 4 17 19 14 17 -4 18 -3 6 6 -10 7 -11 11 -2
11 6 0 12 6 12 13 0 8 9 22 20 32 15 14 17 21 9 31 -6 8 -16 11 -23 7 -6 -3
-7 -2 -3 2 10 12 38 15 31 4 -3 -5 -1 -9 4 -9 17 0 22 13 9 28 -10 13 -9 14 2
7 11 -6 13 -3 9 13 -4 12 -2 19 3 16 5 -3 12 2 15 10 3 9 11 13 16 10 6 -4 8
4 6 17 -2 17 -9 23 -23 21 -16 -2 -17 -1 -5 7 9 6 18 6 26 0 9 -8 12 -1 10 26
-2 19 2 38 8 42 6 3 8 3 4 -2 -4 -4 0 -14 10 -22 11 -8 12 -12 3 -11 -7 2 -16
-3 -19 -11 -3 -9 0 -11 8 -6 9 6 9 2 -1 -16 -7 -13 -11 -24 -9 -24 2 0 0 -10
-4 -23 -4 -12 -12 -19 -18 -16 -6 4 -6 0 1 -13 6 -11 7 -24 3 -28 -4 -5 -2 -5
5 -1 7 4 10 13 6 21 -3 8 0 15 7 15 6 0 9 4 5 9 -3 5 2 16 10 24 9 9 12 23 8
34 -6 16 -5 16 11 4 15 -12 17 -12 14 0 -2 8 3 13 10 11 6 -1 12 2 12 8 0 14
-13 13 -29 -2 -11 -11 -13 -10 -8 4 3 10 0 30 -8 45 -8 15 -15 33 -14 38 0 6
6 -3 13 -19 9 -19 16 -25 20 -17 4 7 2 19 -6 28 -11 14 -11 16 2 8 8 -5 25
-10 37 -11 17 -1 20 2 12 12 -7 8 -7 14 2 19 6 4 15 1 20 -6 6 -10 8 -7 7 11
-2 16 2 24 10 22 8 -1 11 2 7 8 -3 5 -1 10 5 10 6 0 8 5 5 11 -5 6 -11 4 -19
-7 -9 -12 -15 -14 -20 -6 -4 7 -2 12 3 12 6 0 11 5 11 10 0 12 -22 9 -33 -5
-5 -6 -7 -4 -4 5 2 8 9 15 15 15 6 0 17 6 23 12 10 10 8 17 -7 35 -11 14 -13
18 -3 10 18 -14 30 -7 22 14 -3 8 0 14 7 14 6 0 9 -3 6 -8 -2 -4 7 -12 20 -19
26 -12 40 -2 30 22 -3 8 0 15 7 15 8 0 7 4 -3 9 -16 11 -33 4 -25 -9 3 -5 0
-12 -6 -16 -8 -4 -9 -3 -5 4 4 7 3 12 -2 12 -6 0 -13 7 -16 16 -6 15 -4 15 11
3 15 -12 16 -12 11 3 -6 14 -2 15 23 8 34 -10 46 2 22 21 -9 8 -14 9 -10 2 8
-12 -17 -12 -30 1 -4 4 -3 7 2 6 6 -1 13 -1 18 0 20 7 33 4 45 -10 11 -13 11
-11 2 8 -9 18 -8 26 4 38 16 15 11 48 -6 38 -5 -3 -7 -11 -5 -18 6 -16 -14
-41 -35 -42 -10 -1 -15 2 -12 7 3 5 12 9 20 9 8 0 13 4 10 8 -2 4 -1 14 4 22
5 9 4 20 -3 30 -9 12 -9 13 2 3 7 -6 20 -9 27 -6 8 3 14 -1 15 -8 0 -8 4 -4
10 9 5 13 14 20 20 17 6 -4 5 2 -2 13 -13 21 -34 19 -26 -2 3 -7 -4 -13 -14
-13 -20 -2 -14 9 24 45 16 16 16 17 0 23 -11 5 -5 7 17 6 19 0 29 -2 22 -5z
m298 -17 c0 -2 -9 -3 -19 -2 -11 0 -18 5 -15 9 4 6 34 0 34 -7z m-380 -15 c0
-5 -5 -10 -11 -10 -5 0 -7 5 -4 10 3 6 8 10 11 10 2 0 4 -4 4 -10z m-29 -83
c-10 -9 -11 -8 -5 6 3 10 9 15 12 12 3 -3 0 -11 -7 -18z m-11 -143 c0 -8 -5
-12 -10 -9 -6 4 -8 11 -5 16 9 14 15 11 15 -7z m425 -82 c-3 -3 -11 0 -18 7
-9 10 -8 11 6 5 10 -3 15 -9 12 -12z m35 -27 c0 -1 -10 -10 -22 -21 -12 -10
-18 -13 -14 -6 4 7 1 12 -8 12 -8 0 -18 4 -21 10 -3 5 0 7 8 4 8 -3 18 -1 21
5 5 8 36 5 36 -4z m-560 -6 c0 -5 6 -7 13 -3 6 4 2 -4 -11 -18 -12 -13 -19
-28 -15 -33 5 -4 -2 -2 -14 4 -27 14 -31 23 -5 14 15 -6 15 -5 3 10 -9 11 -10
17 -2 17 6 0 11 -5 11 -11 0 -5 5 -7 10 -4 8 5 7 11 -1 21 -8 10 -8 14 0 14 6
0 11 -5 11 -11z m995 -87 c1 -4 6 -18 13 -32 12 -23 12 -24 -2 -6 -12 14 -16
16 -16 5 0 -12 -2 -12 -9 0 -9 14 -2 56 8 46 3 -4 6 -10 6 -13z m-20 -52 c3
-5 1 -10 -4 -10 -6 0 -11 5 -11 10 0 6 2 10 4 10 3 0 8 -4 11 -10z m-1138 -85
c0 -8 -4 -12 -9 -9 -5 3 -6 10 -3 15 9 13 12 11 12 -6z m951 -43 c7 7 12 10
12 7 0 -3 -9 -14 -19 -23 -19 -17 -20 -17 -31 4 -10 19 -10 21 8 11 13 -7 22
-7 30 1z m-228 -12 c0 -5 -5 -10 -11 -10 -5 0 -7 5 -4 10 3 6 8 10 11 10 2 0
4 -4 4 -10z m-24 -151 c-13 -10 -28 -19 -33 -19 -4 0 0 5 10 11 9 6 14 15 11
21 -4 7 -2 8 4 4 7 -4 12 -2 12 4 0 6 5 8 10 5 6 -4 1 -15 -14 -26z m-802 -1
c-5 -8 -1 -9 12 -4 14 5 16 4 7 -5 -13 -13 -37 -3 -28 12 4 5 8 9 11 9 3 0 2
-5 -2 -12z m763 -53 c0 -8 -4 -12 -9 -9 -5 3 -6 10 -3 15 9 13 12 11 12 -6z
m23 -195 c0 -10 -3 -21 -7 -23 -5 -3 -8 8 -8 23 0 15 3 26 8 23 4 -2 7 -13 7
-23z m-624 -35 c-1 -21 -3 -23 -12 -10 -10 14 -12 14 -18 -1 -5 -13 -9 -14
-22 -4 -18 16 -2 30 28 25 10 -2 18 0 18 6 0 5 2 9 4 9 2 0 3 -11 2 -25z
m1444 21 c0 -3 -4 -8 -10 -11 -5 -3 -10 -1 -10 4 0 6 5 11 10 11 6 0 10 -2 10
-4z m-1520 -21 c0 -12 -19 -12 -23 0 -4 9 -1 12 9 8 7 -3 14 -7 14 -8z m1561
1 c-13 -15 -54 -18 -45 -4 3 5 9 6 13 4 4 -3 13 -1 21 5 21 13 24 11 11 -5z
m-1701 -5 c7 10 9 9 8 -6 -1 -13 -9 -21 -19 -21 -10 0 -16 2 -14 5 3 2 -1 11
-8 20 -11 14 -10 14 6 2 16 -13 20 -13 27 0z m-105 -30 c3 -5 2 -12 -3 -15 -5
-3 -9 1 -9 9 0 17 3 19 12 6z m1776 -74 c-10 -9 -11 -8 -5 6 3 10 9 15 12 12
3 -3 0 -11 -7 -18z m-1811 8 c0 -2 -10 -9 -22 -15 -22 -11 -22 -10 -4 4 21 17
26 19 26 11z m980 -70 c0 -7 -7 -16 -16 -19 -14 -5 -15 -4 -5 8 7 8 9 21 5 27
-4 8 -3 9 4 5 7 -4 12 -13 12 -21z m845 17 c13 -9 13 -32 0 -31 -5 0 -12 -7
-15 -17 -6 -16 -7 -15 -12 4 -3 12 -2 20 4 19 19 -4 20 21 1 26 -12 3 -13 5
-3 6 8 0 20 -3 25 -7z m-1869 -87 c-1 -8 -7 -20 -13 -26 -9 -9 -11 -7 -8 7 2
11 4 22 4 27 1 4 5 7 10 7 5 0 8 -7 7 -15z m1844 -141 c0 -8 -19 -13 -24 -6
-3 5 1 9 9 9 8 0 15 -2 15 -3z m-104 -91 c-3 -4 -6 -1 -6 7 0 10 -3 10 -16 -1
-9 -7 -23 -14 -33 -15 -14 -2 -14 -1 1 10 10 7 15 16 11 20 -4 4 0 4 10 0 11
-4 17 -1 17 7 0 9 4 7 11 -4 6 -10 8 -21 5 -24z m-166 23 c0 -2 -7 -7 -16 -10
-8 -3 -12 -2 -9 4 6 10 25 14 25 6z m-183 -40 c-2 -6 -10 -11 -18 -11 -8 0
-19 -6 -25 -14 -8 -10 -13 -11 -18 -3 -4 7 -2 12 4 12 6 0 9 4 5 9 -3 5 -1 12
4 15 5 4 12 2 16 -4 3 -5 11 -10 17 -10 6 0 6 6 -2 15 -11 13 -10 14 4 9 9 -4
15 -12 13 -18z m-1252 -6 c3 -5 1 -10 -4 -10 -6 0 -11 5 -11 10 0 6 2 10 4 10
3 0 8 -4 11 -10z m948 -25 c-7 -21 -12 -19 -10 4 0 11 5 18 9 15 4 -3 5 -11 1
-19z m29 3 c-7 -7 -12 -8 -12 -2 0 14 12 26 19 19 2 -3 -1 -11 -7 -17z m-238
-29 c-3 -5 -14 -5 -25 1 -23 13 -25 22 -2 13 12 -5 14 -3 8 8 -8 12 -6 12 8 0
9 -7 14 -17 11 -22z m39 23 c3 7 6 3 6 -9 1 -28 -1 -28 -25 -1 -13 16 -14 19
-2 10 13 -10 17 -10 21 0z m-802 -77 c5 3 6 -1 2 -11 -6 -16 -7 -15 -20 2 -7
10 -13 23 -13 28 0 6 5 3 11 -7 6 -9 14 -15 20 -12z m-41 -28 c0 -2 -8 -3 -18
-3 -10 0 -19 6 -19 13 0 8 6 9 19 2 10 -5 18 -11 18 -12z m-350 -29 c0 -17 -3
-19 -12 -10 -8 8 -15 9 -25 0 -11 -8 -12 -7 -7 6 4 10 13 15 20 12 8 -3 14 -1
14 4 0 6 2 10 5 10 3 0 5 -10 5 -22z m44 10 c-3 -4 0 -8 5 -8 6 0 11 4 11 9 0
5 11 9 25 9 14 0 25 -5 25 -11 0 -6 -3 -7 -7 -4 -3 4 -14 0 -23 -8 -15 -14
-19 -14 -40 3 -18 14 -19 19 -7 19 9 0 14 -4 11 -9z m91 2 c3 -5 1 -10 -4 -10
-6 0 -11 5 -11 10 0 6 2 10 4 10 3 0 8 -4 11 -10z m-345 -20 c0 -5 -2 -10 -4
-10 -3 0 -8 5 -11 10 -3 6 -1 10 4 10 6 0 11 -4 11 -10z"/>
<path d="M1480 2090 c-9 -6 -10 -10 -3 -10 6 0 15 5 18 10 8 12 4 12 -15 0z"/>
<path d="M1455 2050 c-3 -5 -1 -10 4 -10 6 0 11 5 11 10 0 6 -2 10 -4 10 -3 0
-8 -4 -11 -10z"/>
<path d="M1340 1920 c-16 -11 -15 -11 18 -15 18 -2 20 0 11 11 -13 16 -10 16
-29 4z"/>
<path d="M1323 1875 c-4 -5 -3 -7 2 -3 4 4 14 3 20 -2 9 -7 14 -7 18 3 6 15
-32 18 -40 2z"/>
<path d="M1252 1739 c-9 -13 -9 -20 0 -25 7 -4 8 -3 4 5 -4 7 2 14 15 19 17 7
19 10 7 14 -8 4 -19 -2 -26 -13z"/>
<path d="M1160 1585 c0 -8 1 -16 3 -18 1 -2 -10 -19 -24 -38 -47 -62 -47 -61
10 -50 2 1 -2 7 -8 15 -8 10 -9 16 -1 21 5 3 10 1 10 -4 0 -6 5 -11 11 -11 8
0 7 5 -2 16 -8 10 -9 18 -3 22 10 7 18 62 9 62 -3 0 -5 -7 -5 -15z"/>
<path d="M1093 1451 c1 -5 -6 -16 -16 -23 -17 -13 -17 -15 -3 -27 12 -10 16
-10 16 -2 0 7 4 10 9 6 6 -3 8 4 6 15 -2 11 0 20 6 20 5 0 9 -5 9 -12 0 -6 3
-8 6 -5 8 8 -14 37 -27 37 -5 0 -8 -4 -6 -9z m2 -31 c-3 -5 -12 -10 -18 -10
-7 0 -6 4 3 10 19 12 23 12 15 0z"/>
<path d="M2670 2620 c6 -11 13 -20 16 -20 2 0 0 9 -6 20 -6 11 -13 20 -16 20
-2 0 0 -9 6 -20z"/>
<path d="M2695 2509 c-4 -6 -5 -12 -2 -15 2 -3 7 2 10 11 7 17 1 20 -8 4z"/>
<path d="M2307 2427 c4 -7 0 -8 -13 -3 -10 4 -15 4 -11 0 4 -4 -3 -19 -15 -33
l-23 -26 26 23 c14 12 29 19 32 15 4 -3 7 -1 7 5 0 7 3 11 8 10 4 -2 9 1 12 6
3 5 -3 10 -13 12 -10 1 -14 -2 -10 -9z"/>
<path d="M2660 2434 c0 -5 7 -18 15 -28 8 -11 15 -16 15 -10 0 5 -7 18 -15 28
-8 11 -15 16 -15 10z"/>
<path d="M2100 2420 c-12 -8 -12 -10 3 -16 21 -8 35 2 21 16 -5 5 -15 6 -24 0z"/>
<path d="M2136 2393 c-6 -14 -5 -15 5 -6 7 7 10 15 7 18 -3 3 -9 -2 -12 -12z"/>
<path d="M1950 2390 c0 -5 5 -10 11 -10 5 0 7 5 4 10 -3 6 -8 10 -11 10 -2 0
-4 -4 -4 -10z"/>
<path d="M1894 2369 c-3 -6 -2 -15 3 -20 5 -5 9 -1 9 11 0 23 -2 24 -12 9z"/>
<path d="M2687 2317 c-3 -8 1 -14 8 -14 7 0 11 6 8 14 -3 7 -6 13 -8 13 -2 0
-5 -6 -8 -13z"/>
<path d="M1830 2271 c0 -6 4 -13 10 -16 6 -3 7 1 4 9 -7 18 -14 21 -14 7z"/>
<path d="M1825 2212 c-2 -3 -2 -8 1 -13 5 -9 34 -1 34 10 0 8 -27 10 -35 3z"/>
<path d="M1838 2173 c7 -3 16 -2 19 1 4 3 -2 6 -13 5 -11 0 -14 -3 -6 -6z"/>
<path d="M1842 2151 c-11 -6 -9 -9 5 -13 12 -3 20 0 20 8 0 16 -6 17 -25 5z"/>
<path d="M1855 2109 c-4 -6 -4 -13 -1 -16 3 -4 6 -1 6 6 0 7 5 9 12 5 7 -4 8
-3 4 4 -9 15 -13 15 -21 1z"/>
<path d="M2660 2110 c-12 -7 -10 -9 7 -7 12 0 19 5 17 9 -6 10 -6 10 -24 -2z"/>
<path d="M1830 2069 c0 -5 5 -7 12 -3 8 5 9 1 5 -12 -7 -18 -6 -18 6 -2 8 10
17 16 20 13 4 -3 5 -2 2 2 -9 12 -45 14 -45 2z"/>
<path d="M2496 2052 c-3 -5 1 -9 9 -9 8 0 12 4 9 9 -3 4 -7 8 -9 8 -2 0 -6 -4
-9 -8z"/>
<path d="M1850 2030 c-8 -5 -15 -17 -15 -27 0 -10 -4 -23 -8 -29 -4 -7 0 -17
9 -24 11 -10 12 -15 3 -20 -7 -5 -8 -10 -1 -14 16 -9 23 22 8 36 -11 10 -11
15 1 26 11 12 11 17 1 30 -11 13 -10 15 5 9 10 -4 16 -3 12 2 -3 5 1 12 7 14
7 3 9 6 3 6 -5 0 -17 -4 -25 -9z"/>
<path d="M1856 1812 c-3 -4 4 -9 15 -9 23 -2 25 3 4 10 -8 4 -16 3 -19 -1z"/>
<path d="M2353 1665 c0 -8 4 -12 9 -9 5 3 6 10 3 15 -9 13 -12 11 -12 -6z"/>
<path d="M2313 1654 c3 -4 2 -14 -3 -24 -6 -11 -5 -17 3 -17 7 0 13 11 13 24
1 13 -3 23 -9 23 -6 0 -7 -3 -4 -6z"/>
<path d="M2253 1543 c7 -16 13 -20 18 -12 10 16 1 36 -15 36 -11 0 -12 -5 -3
-24z"/>
<path d="M2109 1553 c-1 -5 -1 -12 0 -16 1 -4 -3 -17 -9 -27 -6 -11 -8 -20 -6
-20 6 0 36 55 36 65 0 8 -20 6 -21 -2z"/>
<path d="M1873 1395 c0 -8 4 -12 9 -9 5 3 6 10 3 15 -9 13 -12 11 -12 -6z"/>
<path d="M1834 1265 c0 -13 5 -26 12 -29 6 -2 11 1 10 7 0 7 4 13 9 14 6 0 9
-3 7 -9 -1 -5 2 -7 8 -3 8 5 7 11 -1 21 -6 8 -14 12 -17 9 -3 -3 -10 -1 -17 5
-8 6 -11 2 -11 -15z"/>
<path d="M2630 1216 c0 -2 7 -7 16 -10 8 -3 12 -2 9 4 -6 10 -25 14 -25 6z"/>
<path d="M1830 1188 c0 -6 3 -8 7 -5 3 4 12 2 20 -5 11 -8 12 -7 7 6 -7 18
-34 22 -34 4z"/>
<path d="M1272 1135 c4 -5 3 -14 -2 -20 -7 -9 -5 -17 7 -26 11 -9 14 -10 9 -1
-6 11 -1 14 22 11 4 -1 6 -5 5 -10 -2 -5 1 -9 6 -9 6 0 9 9 8 20 -1 10 -3 17
-6 15 -2 -3 -16 2 -30 11 -14 9 -23 13 -19 9z"/>
<path d="M1495 1119 c-4 -6 -5 -12 -2 -15 2 -3 7 2 10 11 7 17 1 20 -8 4z"/>
<path d="M1340 1110 c0 -5 5 -10 11 -10 5 0 8 -4 5 -8 -2 -4 4 -8 15 -8 24 0
24 0 -6 20 -14 9 -25 12 -25 6z"/>
<path d="M1050 1093 c0 -4 5 -15 10 -23 8 -13 10 -13 10 2 0 9 -4 20 -10 23
-5 3 -10 3 -10 -2z"/>
<path d="M997 1075 c-4 -8 -3 -16 1 -19 4 -3 9 4 9 15 2 23 -3 25 -10 4z"/>
<path d="M1031 1074 c0 -11 3 -14 6 -6 3 7 2 16 -1 19 -3 4 -6 -2 -5 -13z"/>
<path d="M1096 1064 c-5 -14 -4 -15 8 -5 8 7 21 9 27 5 8 -4 9 -3 5 4 -10 17
-33 15 -40 -4z"/>
<path d="M916 1028 c3 -5 10 -6 15 -3 13 9 11 12 -6 12 -8 0 -12 -4 -9 -9z"/>
<path d="M896 1012 c-3 -5 1 -9 9 -9 8 0 12 4 9 9 -3 4 -7 8 -9 8 -2 0 -6 -4
-9 -8z"/>
<path d="M842 998 c-8 -8 -7 -14 3 -24 18 -18 20 -18 22 6 2 24 -10 33 -25 18z"/>
<path d="M1826 992 c-2 -4 -1 -14 5 -22 6 -11 9 -12 9 -2 0 7 4 10 10 7 6 -3
7 1 4 9 -7 17 -20 21 -28 8z"/>
<path d="M2657 834 c-4 -7 0 -17 8 -24 12 -10 13 -15 3 -28 -7 -8 -14 -23 -14
-34 -1 -10 -3 -20 -4 -23 -1 -3 -3 -10 -4 -16 0 -6 -9 -16 -18 -23 -26 -19
-26 -38 2 -42 24 -4 24 -4 5 11 -19 16 -19 16 10 10 28 -6 29 -6 10 9 -18 13
-18 15 -3 21 9 4 14 13 11 21 -4 10 0 13 13 8 14 -4 15 -3 6 4 -11 7 -11 10 2
15 9 4 16 12 15 19 0 10 -2 10 -6 1 -7 -18 -20 -16 -20 2 0 8 4 15 9 15 4 0 8
7 8 15 0 8 -4 15 -9 15 -5 0 -11 8 -13 18 -2 11 -6 13 -11 6z"/>
<path d="M2695 711 c-3 -5 -2 -12 3 -15 5 -3 9 1 9 9 0 17 -3 19 -12 6z"/>
<path d="M2661 687 c2 -1 13 -9 24 -17 19 -14 19 -14 6 3 -7 9 -18 17 -24 17
-6 0 -8 -1 -6 -3z"/>
<path d="M2360 640 c-8 -5 -11 -10 -6 -10 5 0 2 -8 -5 -17 -13 -16 -12 -17 4
-4 16 12 22 9 18 -12 -1 -5 3 -6 9 -2 8 5 8 11 0 20 -7 8 -9 19 -5 25 8 12 4
13 -15 0z"/>
<path d="M2300 625 c-7 -9 -10 -18 -7 -21 3 -3 10 4 17 15 13 25 8 27 -10 6z"/>
<path d="M2195 611 c3 -2 0 -9 -5 -16 -7 -8 -5 -12 5 -12 8 0 12 4 9 9 -5 7
10 12 29 9 5 -1 6 3 3 8 -4 5 -15 9 -26 8 -10 -1 -17 -3 -15 -6z"/>
<path d="M2500 616 c0 -2 7 -7 16 -10 8 -3 12 -2 9 4 -6 10 -25 14 -25 6z"/>
<path d="M1960 600 c-13 -9 -13 -12 3 -21 9 -6 15 -14 12 -19 -3 -5 -1 -11 4
-14 11 -7 9 13 -2 32 -5 6 -5 17 -2 22 8 13 4 12 -15 0z"/>
<path d="M2605 590 c-3 -6 1 -7 9 -4 18 7 21 14 7 14 -6 0 -13 -4 -16 -10z"/>
<path d="M2028 573 c6 -2 18 -2 25 0 6 3 1 5 -13 5 -14 0 -19 -2 -12 -5z"/>
<path d="M2079 563 c-13 -16 -12 -17 4 -4 9 7 17 15 17 17 0 8 -8 3 -21 -13z"/>
<path d="M1556 563 c-11 -11 -6 -23 9 -23 8 0 15 4 15 9 0 13 -16 22 -24 14z"/>
<path d="M1864 554 c-18 -14 -18 -15 4 -4 12 6 22 13 22 15 0 8 -5 6 -26 -11z"/>
<path d="M2618 565 c-2 -2 -39 -6 -82 -9 -44 -3 -81 -8 -84 -11 -3 -3 -12 1
-20 8 -13 10 -14 9 -8 -2 7 -10 -1 -12 -37 -10 -25 2 -43 0 -40 -4 3 -4 -14
-7 -36 -6 -22 2 -44 0 -47 -4 -4 -4 -14 -1 -22 6 -13 9 -14 9 -8 0 5 -9 -2
-13 -26 -14 -18 0 -41 -2 -51 -4 -9 -2 -52 -6 -94 -10 -42 -4 -126 -12 -187
-19 -61 -7 -130 -13 -153 -12 -22 1 -39 -2 -36 -6 2 -5 -17 -8 -44 -9 -26 0
-57 -2 -68 -4 -11 -2 -47 -7 -80 -10 -33 -3 -73 -7 -90 -9 -16 -3 -64 -7 -105
-11 -41 -4 -83 -9 -92 -11 -9 -1 -49 -5 -90 -9 -40 -3 -84 -8 -98 -10 -14 -2
-59 -6 -100 -10 -41 -4 -86 -8 -100 -10 -74 -11 -162 -19 -216 -19 -34 -1 -60
-4 -57 -8 2 -5 -13 -8 -34 -9 -21 -1 -49 -2 -63 -4 -14 -1 -54 -6 -90 -10 -36
-3 -92 -10 -125 -13 l-60 -7 -3 -39 c-2 -22 1 -36 6 -32 5 3 48 8 95 10 47 2
90 7 96 10 5 4 12 -2 16 -13 3 -11 13 -25 23 -33 15 -12 15 -11 -1 14 -19 31
-21 38 -9 38 5 0 13 -10 19 -22 8 -19 10 -20 16 -4 4 10 3 15 -3 11 -6 -3 -10
-1 -10 5 0 7 7 10 15 6 8 -3 15 -1 15 4 0 4 20 7 45 6 25 -1 45 1 45 6 0 4 11
-2 25 -14 20 -18 23 -24 12 -37 -6 -9 7 -1 31 18 23 18 42 35 42 38 0 3 -7 0
-15 -7 -10 -9 -15 -9 -15 -1 0 6 1 11 3 12 42 8 87 9 87 1 0 -6 -11 -9 -24 -6
-22 4 -45 -20 -31 -34 2 -3 7 2 11 11 3 10 14 14 29 11 17 -3 25 1 30 16 3 11
11 20 16 20 13 0 11 -14 -3 -28 -9 -9 -9 -12 1 -12 7 0 9 -4 6 -10 -3 -6 1 -7
10 -3 13 4 14 8 4 14 -8 4 -10 12 -5 16 4 4 14 -1 22 -11 8 -11 14 -15 14 -10
0 6 -5 15 -12 22 -6 6 -9 15 -5 19 4 3 14 -2 23 -13 13 -16 15 -17 10 -1 -4
14 1 17 27 18 18 1 36 1 41 0 4 -1 15 4 24 11 12 10 14 10 8 1 -4 -8 -2 -13 8
-13 8 0 17 -6 20 -12 3 -7 3 -3 0 9 -3 13 -1 23 5 23 6 0 11 -4 11 -10 0 -5 5
-10 11 -10 5 0 7 5 4 10 -3 6 -1 10 5 10 7 0 9 -8 5 -21 -5 -15 -4 -19 4 -15
6 4 11 14 11 22 0 8 3 15 8 15 4 1 21 2 37 4 17 1 49 5 73 8 23 3 42 3 42 0 0
-3 -9 -19 -21 -36 l-21 -32 24 28 c13 15 30 27 38 27 13 0 13 2 0 10 -17 11
-17 11 57 14 24 2 46 5 49 9 4 4 13 2 21 -4 9 -9 13 -8 13 0 0 6 5 11 11 11 5
0 7 -4 4 -10 -3 -5 -1 -10 4 -10 6 0 11 5 11 10 0 6 9 10 21 10 11 0 17 -5 14
-10 -4 -6 -11 -8 -16 -5 -5 3 -6 -1 -2 -11 5 -14 8 -12 22 10 9 14 19 26 23
26 11 0 10 -14 -3 -27 -7 -7 -6 -12 5 -16 8 -3 18 -2 21 3 9 15 34 -1 28 -18
-4 -15 -3 -15 6 -2 15 21 -16 45 -36 29 -16 -14 -17 3 -1 19 14 14 42 16 33 2
-4 -6 1 -7 11 -3 11 4 15 3 10 -5 -4 -6 3 -16 16 -22 20 -10 21 -10 6 3 -14
11 -15 16 -5 27 9 9 9 11 0 6 -6 -3 -14 -3 -17 2 -3 5 8 8 25 8 16 0 29 -3 29
-8 0 -4 4 -8 10 -8 5 0 9 5 7 11 -1 7 16 12 44 14 26 1 52 6 59 10 9 5 11 4 6
-3 -6 -10 7 -17 17 -9 2 1 11 -4 20 -11 18 -16 37 -8 37 15 0 10 6 14 20 10
11 -3 20 -1 20 4 0 13 44 11 59 -3 10 -9 12 -10 7 -1 -11 21 87 30 112 10 9
-7 18 -4 33 12 16 17 24 19 34 11 10 -8 14 -7 18 2 4 10 6 10 6 1 1 -7 6 -13
12 -13 5 0 7 5 4 10 -10 17 5 11 28 -11 l22 -20 10 23 c6 13 17 23 25 23 8 -1
30 2 48 6 23 5 32 4 29 -4 -2 -7 -12 -11 -22 -9 -13 3 -16 -1 -11 -13 3 -9 6
-20 6 -23 0 -4 7 3 15 15 9 12 21 21 28 19 6 -1 9 -1 5 1 -13 8 -9 20 7 20 8
0 15 -4 15 -9 0 -4 5 -8 10 -8 5 0 9 5 7 12 -2 14 84 16 118 4 14 -6 16 -5 6
2 -17 13 -4 19 39 18 35 -1 48 -21 25 -39 -6 -5 -4 -7 5 -4 8 2 14 14 14 25
-1 12 3 22 7 22 13 0 16 1 49 10 24 7 30 5 30 -6 0 -20 25 -28 47 -15 15 9 13
10 -10 5 -21 -5 -26 -3 -22 8 4 9 16 15 28 15 52 1 54 2 53 36 -1 26 -5 32
-23 33 -12 1 -24 0 -25 -1z m-508 -135 c0 -5 -4 -10 -9 -10 -6 0 -13 5 -16 10
-3 6 1 10 9 10 9 0 16 -4 16 -10z m-140 -10 c0 -5 -4 -10 -10 -10 -5 0 -10 5
-10 10 0 6 5 10 10 10 6 0 10 -4 10 -10z m-250 -38 c0 -9 -5 -10 -19 -3 -10 6
-21 7 -25 4 -3 -3 -6 -1 -6 5 0 7 11 11 25 10 14 -1 25 -8 25 -16z m-1107
-116 c7 -18 -17 -28 -32 -13 -16 16 -13 27 8 27 10 0 21 -6 24 -14z"/>
<path d="M1420 555 c0 -2 6 -8 13 -14 10 -8 14 -7 14 2 0 8 -6 14 -14 14 -7 0
-13 -1 -13 -2z"/>
<path d="M1484 548 c-3 -5 -1 -15 5 -21 9 -9 11 -8 6 5 -7 18 8 19 35 4 12 -7
13 -6 3 4 -16 17 -41 21 -49 8z"/>
<path d="M908 543 c7 -3 16 -2 19 1 4 3 -2 6 -13 5 -11 0 -14 -3 -6 -6z"/>
<path d="M1637 539 c7 -7 15 -10 18 -7 3 3 -2 9 -12 12 -14 6 -15 5 -6 -5z"/>
<path d="M936 532 c-3 -5 1 -9 9 -9 8 0 12 4 9 9 -3 4 -7 8 -9 8 -2 0 -6 -4
-9 -8z"/>
<path d="M1590 516 c0 -2 7 -7 16 -10 8 -3 12 -2 9 4 -6 10 -25 14 -25 6z"/>
<path d="M666 482 c-4 -7 -3 -12 3 -12 6 0 8 -8 5 -17 -5 -14 -4 -15 4 -4 8
11 10 11 15 0 4 -11 6 -11 6 -1 1 7 5 11 10 7 5 -3 17 2 25 11 9 8 16 11 16 6
0 -11 48 -13 55 -2 2 3 -1 7 -8 8 -7 1 -27 3 -44 5 -20 3 -37 -1 -44 -9 -10
-12 -14 -12 -24 2 -8 12 -14 14 -19 6z"/>
<path d="M2655 479 c-4 -6 -5 -12 -2 -15 2 -3 7 2 10 11 7 17 1 20 -8 4z"/>
<path d="M905 470 c-3 -6 1 -7 9 -4 18 7 21 14 7 14 -6 0 -13 -4 -16 -10z"/>
<path d="M2528 473 c6 -3 10 -9 7 -13 -3 -5 -12 -7 -20 -3 -8 3 -15 1 -15 -5
0 -6 8 -9 18 -7 9 2 20 4 23 4 4 1 9 7 12 14 3 8 -3 13 -17 14 -11 0 -15 -1
-8 -4z"/>
<path d="M870 459 c0 -5 5 -7 10 -4 6 3 10 8 10 11 0 2 -4 4 -10 4 -5 0 -10
-5 -10 -11z"/>
<path d="M2426 456 c7 -18 26 -17 30 2 1 7 0 8 -3 2 -3 -8 -9 -7 -19 1 -12 10
-13 9 -8 -5z"/>
<path d="M2295 438 c-16 -11 -22 -18 -13 -15 18 6 42 -15 30 -28 -4 -5 -1 -5
6 -1 10 6 10 11 1 22 -9 11 -9 17 1 29 16 19 12 18 -25 -7z"/>
<path d="M2348 446 c-22 -16 -23 -23 -3 -23 8 0 13 3 10 5 -3 3 0 11 6 19 14
16 9 16 -13 -1z"/>
<path d="M770 446 c0 -2 8 -10 18 -17 15 -13 16 -12 3 4 -13 16 -21 21 -21 13z"/>
<path d="M246 432 c-3 -5 1 -9 9 -9 8 0 12 4 9 9 -3 4 -7 8 -9 8 -2 0 -6 -4
-9 -8z"/>
<path d="M353 420 c2 -11 7 -23 12 -27 4 -5 5 -3 2 4 -4 6 -1 14 5 16 10 4 10
6 0 6 -7 1 -10 6 -7 11 3 6 1 10 -4 10 -6 0 -10 -9 -8 -20z"/>
<path d="M2140 430 c0 -19 5 -24 23 -25 21 -2 21 -3 -3 18 -11 9 -20 12 -20 7z"/>
<path d="M2374 433 c2 -2 12 -6 23 -8 10 -1 17 -8 15 -15 -1 -6 2 -9 7 -5 18
10 1 33 -25 33 -14 0 -23 -3 -20 -5z"/>
<path d="M1986 405 c-9 -14 -13 -25 -9 -25 10 0 36 40 30 46 -2 3 -12 -7 -21
-21z"/>
<path d="M296 411 c-3 -5 1 -14 8 -20 10 -9 16 -9 21 -1 4 6 1 9 -7 8 -7 -2
-12 3 -10 10 2 14 -4 16 -12 3z"/>
<path d="M2210 400 c-6 -11 -8 -20 -6 -20 3 0 10 9 16 20 6 11 8 20 6 20 -3 0
-10 -9 -16 -20z"/>
<path d="M2240 416 c0 -2 7 -7 16 -10 8 -3 12 -2 9 4 -6 10 -25 14 -25 6z"/>
<path d="M1854 391 c-17 -19 -19 -19 -36 -4 -17 15 -18 15 -13 1 11 -27 35
-30 55 -6 10 13 22 19 26 15 5 -4 4 -11 -2 -15 -12 -9 -12 -27 0 -39 5 -4 7
-3 3 2 -9 16 9 38 33 42 14 2 19 -1 14 -9 -4 -7 -3 -8 5 -4 15 10 5 25 -17 24
-9 0 -25 3 -34 6 -11 5 -23 1 -34 -13z"/>
<path d="M2015 399 c-4 -6 -4 -13 -1 -16 3 -4 6 -1 6 5 0 6 8 13 18 15 15 4
15 5 0 6 -9 0 -20 -4 -23 -10z"/>
<path d="M2064 398 c3 -15 26 -23 26 -8 0 6 -4 9 -9 6 -5 -4 -12 -1 -14 4 -3
6 -4 5 -3 -2z"/>
<path d="M1776 384 c-4 -9 -4 -19 -1 -22 2 -3 7 3 11 12 4 9 4 19 1 22 -2 3
-7 -3 -11 -12z"/>
<path d="M1743 383 c4 -3 1 -13 -6 -22 -11 -14 -10 -14 5 -2 16 12 16 31 1 31
-4 0 -3 -3 0 -7z"/>
<path d="M1569 363 c-13 -16 -12 -17 4 -4 16 13 21 21 13 21 -2 0 -10 -8 -17
-17z"/>
<path d="M1591 356 c-8 -14 -18 -23 -22 -20 -4 2 -10 0 -13 -5 -4 -5 1 -8 10
-7 8 1 19 8 23 15 5 7 11 12 15 12 7 -1 9 6 4 20 -2 6 -10 -1 -17 -15z"/>
<path d="M1630 369 c0 -5 5 -7 10 -4 6 3 10 8 10 11 0 2 -4 4 -10 4 -5 0 -10
-5 -10 -11z"/>
<path d="M1510 351 c0 -5 7 -15 17 -22 15 -13 15 -12 4 9 -12 23 -21 28 -21
13z"/>
<path d="M1646 352 c-3 -5 1 -9 9 -9 8 0 15 4 15 9 0 4 -4 8 -9 8 -6 0 -12 -4
-15 -8z"/>
<path d="M1790 349 c0 -5 5 -7 10 -4 6 3 10 8 10 11 0 2 -4 4 -10 4 -5 0 -10
-5 -10 -11z"/>
<path d="M1919 343 c-13 -16 -12 -17 4 -4 9 7 17 15 17 17 0 8 -8 3 -21 -13z"/>
<path d="M1270 340 c-8 -5 -12 -11 -9 -14 2 -3 11 -1 19 4 8 5 12 11 9 14 -2
3 -11 1 -19 -4z"/>
<path d="M1206 324 c19 -15 19 -16 -1 -9 -11 3 -16 3 -12 -1 4 -4 -1 -13 -11
-21 -15 -13 -15 -13 6 -3 12 6 26 8 31 5 5 -3 8 1 7 7 -3 20 -16 38 -29 38 -6
0 -2 -7 9 -16z"/>
<path d="M1236 327 c3 -10 9 -15 12 -12 3 3 0 11 -7 18 -10 9 -11 8 -5 -6z"/>
<path d="M1627 329 c7 -7 15 -10 18 -7 3 3 -2 9 -12 12 -14 6 -15 5 -6 -5z"/>
<path d="M1700 335 c0 -7 30 -13 34 -7 3 4 -4 9 -15 9 -10 1 -19 0 -19 -2z"/>
<path d="M1116 321 c-3 -5 -16 -7 -29 -5 -12 2 -15 1 -7 -2 8 -4 17 -11 20
-15 3 -5 11 1 18 11 7 11 10 20 8 20 -3 0 -7 -4 -10 -9z"/>
<path d="M1297 323 c-10 -10 -8 -23 4 -23 5 0 8 4 4 9 -3 5 3 12 12 14 14 4
15 5 2 6 -9 0 -19 -2 -22 -6z"/>
<path d="M1340 321 c0 -6 4 -13 10 -16 6 -3 7 1 4 9 -7 18 -14 21 -14 7z"/>
<path d="M1002 295 c-7 -14 -12 -31 -12 -38 1 -7 7 3 16 22 17 39 13 54 -4 16z"/>
<path d="M1040 310 c30 -22 50 -31 50 -22 0 6 -8 12 -17 16 -10 3 -25 9 -33
12 -13 5 -13 4 0 -6z"/>
<path d="M1376 304 c-5 -14 -4 -15 9 -4 17 14 19 20 6 20 -5 0 -12 -7 -15 -16z"/>
<path d="M1155 299 c-4 -6 -5 -12 -2 -15 2 -3 7 2 10 11 7 17 1 20 -8 4z"/>
<path d="M1255 300 c-3 -6 1 -7 9 -4 18 7 21 14 7 14 -6 0 -13 -4 -16 -10z"/>
<path d="M1034 292 c3 -5 0 -12 -6 -15 -7 -2 -10 -7 -7 -11 3 -4 12 0 18 8 9
11 9 16 0 22 -7 4 -9 3 -5 -4z"/>
<path d="M823 275 c0 -8 4 -15 9 -15 4 0 8 4 8 9 0 6 -4 12 -8 15 -5 3 -9 -1
-9 -9z"/>
<path d="M853 263 c-1 -19 1 -22 8 -12 11 17 12 39 2 39 -5 0 -9 -12 -10 -27z"/>
<path d="M884 279 c-5 -8 -3 -9 6 -4 7 4 16 2 22 -6 8 -12 9 -12 6 0 -6 20
-24 25 -34 10z"/>
<path d="M941 268 c-13 -20 -12 -22 1 -11 8 7 18 10 22 6 4 -4 4 0 0 10 -8 21
-6 21 -23 -5z"/>
<path d="M453 244 c-7 -20 12 -41 22 -23 6 8 4 10 -5 4 -9 -5 -10 -2 -5 14 7
24 -3 29 -12 5z"/>
<path d="M486 251 c-4 -6 -2 -11 4 -11 6 0 8 -4 5 -10 -3 -5 -1 -10 4 -10 13
0 14 10 2 29 -6 9 -11 10 -15 2z"/>
<path d="M525 246 c11 -8 16 -19 12 -30 -4 -10 -3 -15 3 -11 16 10 12 42 -6
49 -25 10 -29 7 -9 -8z"/>
<path d="M314 228 c-4 -7 -3 -8 4 -4 7 4 12 3 12 -2 0 -6 8 -13 17 -16 15 -6
15 -4 -2 14 -21 23 -22 24 -31 8z"/>
<path d="M362 220 c7 -11 16 -20 20 -20 5 0 3 9 -4 20 -7 11 -16 20 -20 20 -5
0 -3 -9 4 -20z"/>
<path d="M633 225 c0 -8 4 -12 9 -9 5 3 6 10 3 15 -9 13 -12 11 -12 -6z"/>
<path d="M293 205 c0 -8 4 -12 9 -9 5 3 6 10 3 15 -9 13 -12 11 -12 -6z"/>
</g>
</svg>
